<svg width="32" height="32" viewBox="0 0 32 32" fill="none" xmlns="http://www.w3.org/2000/svg">
<path fill-rule="evenodd" clip-rule="evenodd" d="M20.5759 3.81396C22.8626 4.20886 25.0498 4.89834 27.0893 5.83419C27.107 5.8418 27.1221 5.85451 27.131 5.87227C30.7447 11.1876 32.5294 17.1835 31.8622 24.0861C31.8597 24.1153 31.8446 24.142 31.8206 24.1597C29.0835 26.1698 26.4322 27.3901 23.8175 28.1989C23.7758 28.2116 23.7304 28.1964 23.7052 28.1608C23.101 27.3202 22.5523 26.4339 22.0718 25.5031C22.044 25.4486 22.0693 25.3825 22.126 25.3609C22.9976 25.0321 23.8263 24.6384 24.6235 24.1724C24.6865 24.1356 24.6903 24.0454 24.6323 24.0023C24.4633 23.8766 24.2955 23.7445 24.1353 23.6124C24.1051 23.5883 24.0647 23.5832 24.0306 23.5997C18.8554 25.9908 13.1857 25.9908 7.94871 23.5997C7.91464 23.5845 7.87425 23.5896 7.84527 23.6137C7.68509 23.7458 7.5173 23.8766 7.34954 24.0023C7.29154 24.0454 7.29659 24.1356 7.35964 24.1724C8.1568 24.6295 8.98551 25.0321 9.85582 25.3622C9.91256 25.3838 9.93906 25.4486 9.9113 25.5031C9.44086 26.4352 8.89217 27.3215 8.27664 28.1621C8.25014 28.1964 8.20602 28.2116 8.16437 28.1989C5.56228 27.3901 2.91095 26.1698 0.173864 24.1597C0.15116 24.142 0.134763 24.114 0.13224 24.0848C-0.425267 18.1143 0.711189 12.0688 4.85972 5.87101C4.86977 5.85451 4.88491 5.8418 4.90258 5.83419C6.94341 4.89708 9.13055 4.20759 11.4161 3.81396C11.4577 3.80761 11.4993 3.82665 11.5208 3.86348C11.8033 4.36376 12.1262 5.00503 12.3444 5.52942C14.7536 5.16119 17.2005 5.16119 19.6601 5.52942C19.8783 5.01643 20.1899 4.36376 20.4712 3.86348C20.4926 3.82538 20.5342 3.80634 20.5759 3.81396ZM10.6922 20.4493C9.11555 20.4493 7.81639 19.0018 7.81639 17.2241C7.81639 15.4464 9.09035 13.9988 10.6922 13.9988C12.3067 13.9988 13.5933 15.4591 13.5681 17.2241C13.5681 19.0018 12.2941 20.4493 10.6922 20.4493ZM21.3252 20.4493C19.7486 20.4493 18.4494 19.0018 18.4494 17.2241C18.4494 15.4464 19.7233 13.9988 21.3252 13.9988C22.9397 13.9988 24.2263 15.4591 24.2011 17.2241C24.2011 19.0018 22.9397 20.4493 21.3252 20.4493Z" fill="#CACACE"/>
</svg>
