<svg width="32" height="32" viewBox="0 0 32 32" fill="none" xmlns="http://www.w3.org/2000/svg">
<path d="M18.0499 15.8653C18.0499 20.9463 14.0093 25.0654 9.02479 25.0654C4.0403 25.0654 0 20.9475 0 15.8653C0 10.783 4.04061 6.66544 9.02479 6.66544C14.009 6.66544 18.0499 10.7843 18.0499 15.8653ZM27.9505 15.8653C27.9505 20.6484 25.9301 24.5256 23.438 24.5256C20.9459 24.5256 18.9254 20.6472 18.9254 15.8653C18.9254 11.0834 20.9459 7.205 23.438 7.205C25.9301 7.205 27.9505 11.0834 27.9505 15.8653ZM32 15.8653C32 20.1507 31.2893 23.6245 30.4129 23.6245C29.5364 23.6245 28.8257 20.1495 28.8257 15.8653C28.8257 11.5811 29.5364 8.10602 30.4132 8.10602C31.2899 8.10602 32 11.5801 32 15.8653Z" fill="#CACACE"/>
</svg>
