<svg width="32" height="32" viewBox="0 0 32 32" fill="none" xmlns="http://www.w3.org/2000/svg">
<path d="M28.7239 9.32582C28.7435 9.61513 28.7435 9.90444 28.7435 10.1964C28.7435 19.0931 22.1393 29.3536 10.0635 29.3536V29.3483C6.4962 29.3536 3.00305 28.3057 0 26.3299C0.518708 26.3939 1.04002 26.4259 1.56262 26.4272C4.51887 26.4299 7.39062 25.4126 9.71635 23.5394C6.90701 23.4848 4.44347 21.6062 3.58286 18.8638C4.56697 19.0584 5.58099 19.0184 6.5469 18.7478C3.48405 18.1132 1.28052 15.3534 1.28052 12.1483C1.28052 12.1189 1.28052 12.0909 1.28052 12.0629C2.19313 12.5842 3.21495 12.8736 4.26017 12.9055C1.37542 10.9284 0.486208 6.99266 2.22823 3.91556C5.56149 8.12191 10.4795 10.679 15.7588 10.9497C15.2297 8.61121 15.9525 6.16072 17.6582 4.51685C20.3024 1.96771 24.4612 2.09836 26.9468 4.80883C28.4171 4.51151 29.8264 3.95822 31.116 3.17428C30.6259 4.73283 29.6002 6.05673 28.2299 6.898C29.5313 6.74068 30.8027 6.38337 32 5.83808C31.1186 7.19265 30.0084 8.37256 28.7239 9.32582Z" fill="#CACACE"/>
</svg>
