<svg width="32" height="32" viewBox="0 0 32 32" fill="none" xmlns="http://www.w3.org/2000/svg">
<path fill-rule="evenodd" clip-rule="evenodd" d="M28.5205 6.01874C29.8911 6.38777 30.9719 7.46849 31.3409 8.83916C32.0262 11.3433 31.9999 16.5624 31.9999 16.5624C31.9999 16.5624 31.9999 21.7551 31.3409 24.2592C30.9719 25.6299 29.8911 26.7106 28.5205 27.0796C26.0164 27.7386 15.9999 27.7386 15.9999 27.7386C15.9999 27.7386 6.00986 27.7386 3.47939 27.0532C2.10872 26.6842 1.028 25.6035 0.658976 24.2328C0 21.7551 0 16.536 0 16.536C0 16.536 0 11.3433 0.658976 8.83916C1.028 7.46849 2.13508 6.36141 3.47939 5.99238C5.9835 5.3334 15.9999 5.3334 15.9999 5.3334C15.9999 5.3334 26.0164 5.3334 28.5205 6.01874ZM21.1368 16.5353L12.8073 21.3327V11.738L21.1368 16.5353Z" fill="#CACACE"/>
</svg>
